PathFileType	4	(X/Y/Z)	C:\Users\Basilio\Documents\Thesis Gigler\squatting_fais\c3dfiles\039\SJ_pre4\markers_experimental.trc
DataRate	CameraRate	NumFrames	NumMarkers	Units	OrigDataRate	OrigDataStartFrame	OrigNumFrames
200.000000	200.000000	4	63	mm	200.000000	670	1788
Frame#	Time	FHD			LBHD			RBHD			C7			T10			CLAV			LSHO			LUUPA			LMUPA			LDUPA			LLEP			LMEP			LRAD			LUL			LRFIN			RSHO			RUPA1			RMUPA			RDUPA			RLEP			RMEP			RRAD			RUL			RUFIN			LASI			RASI			USACR			LSACR			RSACR			LTHI1			LTHI2			LTHI3			LTHI4			LLFC			LMFC			LTIB1			LTIB2			LTIB3			LTIB4			LLMAL			LMMAL			LHEE			LMT1			LMT2			LMT5			RTHI			RTHI2			RTHI3			RTHI4			RLFC			RMFC			RTIB1			RTIB2			RTIB3			RTIB4			RLMAL			RMMAL			RHEE			RMT1			RMT2			RMT5			*61			*62			
		X1	Y1	Z1	X2	Y2	Z2	X3	Y3	Z3	X4	Y4	Z4	X5	Y5	Z5	X6	Y6	Z6	X7	Y7	Z7	X8	Y8	Z8	X9	Y9	Z9	X10	Y10	Z10	X11	Y11	Z11	X12	Y12	Z12	X13	Y13	Z13	X14	Y14	Z14	X15	Y15	Z15	X16	Y16	Z16	X17	Y17	Z17	X18	Y18	Z18	X19	Y19	Z19	X20	Y20	Z20	X21	Y21	Z21	X22	Y22	Z22	X23	Y23	Z23	X24	Y24	Z24	X25	Y25	Z25	X26	Y26	Z26	X27	Y27	Z27	X28	Y28	Z28	X29	Y29	Z29	X30	Y30	Z30	X31	Y31	Z31	X32	Y32	Z32	X33	Y33	Z33	X34	Y34	Z34	X35	Y35	Z35	X36	Y36	Z36	X37	Y37	Z37	X38	Y38	Z38	X39	Y39	Z39	X40	Y40	Z40	X41	Y41	Z41	X42	Y42	Z42	X43	Y43	Z43	X44	Y44	Z44	X45	Y45	Z45	X46	Y46	Z46	X47	Y47	Z47	X48	Y48	Z48	X49	Y49	Z49	X50	Y50	Z50	X51	Y51	Z51	X52	Y52	Z52	X53	Y53	Z53	X54	Y54	Z54	X55	Y55	Z55	X56	Y56	Z56	X57	Y57	Z57	X58	Y58	Z58	X59	Y59	Z59	X60	Y60	Z60	X61	Y61	Z61	X62	Y62	Z62	X63	Y63	Z63	

671	3.35	109.6697616577149	1331.355346679688	-812.4277343750002	-38.42788314819337	1304.639404296875	-943.7821044921877	-22.05343246459961	1309.921997070313	-802.540222167969	-100.2921218872071	1225.902221679688	-883.9805297851565	-337.7468872070313	1025.326782226563	-892.948181152344	-37.1213493347168	1080.024780273438	-880.9288330078127	-28.26307678222657	1147.489013671875	-1065.884887695313	-153.1046600341797	1098.182495117188	-1247.626098632813	-151.4166870117188	1047.986328125	-1246.376342773438	-186.9913482666016	1057.057861328125	-1293.659057617188	-230.1655426025391	1006.040588378906	-1323.887329101563	-299.7636413574219	1058.343994140625	-1300.1357421875	-427.374481201172	865.757019042969	-1155.26904296875	-393.7311096191407	810.223815917969	-1192.975219726563	-391.2217407226564	854.9736938476565	-1097.986938476563	-34.70024490356446	1134.910034179688	-693.9569091796876	-190.0755615234375	1139.018676757813	-542.1073608398439	-195.0458374023438	1090.579467773438	-528.3442993164064	-237.3019714355469	1116.8818359375	-494.6903076171876	-282.4176940917969	1069.494873046875	-463.7547302246095	-345.5122680664063	1119.50732421875	-504.806854248047	-416.4276428222657	914.287292480469	-684.1473388671876	-424.1587219238282	863.7273559570315	-628.1947021484376	-373.1453552246094	871.6414184570315	-727.5914916992189	-346.1056213378907	805.7108154296877	-1017.205078125	-352.3500366210938	797.2041625976565	-798.2724609375002	-456.4338989257814	951.591003417969	-897.246520996094	-484.258270263672	935.1051025390627	-926.2242431640627	-488.284393310547	932.227966308594	-868.7581176757815	-322.0673217773438	642.9416503906251	-1116.189331054688	-242.755355834961	610.0700073242189	-1124.837890625	-206.5576171875001	640.9848022460939	-1116.934692382813	-225.9486389160157	551.4399414062501	-1110.895263671875	-153.0095672607422	478.6657104492189	-1103.246826171875	-116.6587295532227	459.5639648437501	-998.7772216796877	-122.2763671875	335.9159851074219	-1088.677368164063	-200.1904449462891	319.7944946289063	-1127.88037109375	-164.8653411865235	304.3829650878907	-1109.008666992188	-191.7332000732422	229.5796203613282	-1068.728881835938	-317.0013427734376	97.72725677490237	-1094.964111328125	-291.7803955078126	89.50453948974611	-1010.193298339844	-389.6768493652345	43.03479766845704	-1051.182250976563	-155.4875640869141	53.63442230224611	-1071.938598632813	-167.9185485839844	54.73049163818361	-1113.713500976563	-219.7273559570313	32.6319923400879	-1158.766845703125	-327.8030395507813	661.5423583984376	-688.3009033203126	-262.5802917480469	652.6589965820314	-675.4724121093751	-240.0478820800782	676.2456054687501	-685.3063354492189	-226.2769927978516	577.1025390625001	-663.0742797851564	-170.0911254882813	468.5208129882814	-670.9664916992189	-128.6135406494141	462.5964965820314	-775.6353759765627	-180.1471099853516	271.1282958984376	-685.3681640625001	-280.0527648925782	231.8312225341797	-681.3223876953126	-237.7814025878907	211.0156250000001	-681.6943359375001	-233.0059661865235	159.0527954101563	-710.3330688476564	-324.3297119140626	91.0398406982422	-693.8044433593751	-286.6628417968751	95.48484039306642	-776.5815429687502	-391.8443298339845	41.78529739379884	-746.7707519531251	-159.2057342529297	48.85780334472658	-711.5066528320314	-171.8268280029297	57.80308151245119	-667.6572875976564	-231.8201904296876	32.8035011291504	-623.3908691406251	nan	nan	nan	nan	nan	nan	
672	3.355	110.1882858276367	1329.901000976563	-812.4363403320315	-38.12096023559571	1303.244384765625	-943.5335693359377	-21.50290489196778	1308.730102539063	-803.0335693359377	-99.80231475830081	1224.446899414063	-883.8869628906252	-337.4581604003907	1024.488891601563	-892.8654785156252	-36.96381378173829	1078.470092773438	-880.704284667969	-27.56435775756837	1145.80712890625	-1065.713989257813	-152.7148895263672	1096.90283203125	-1247.58740234375	-150.335678100586	1047.102783203125	-1247.072387695313	-186.6168823242188	1055.858276367188	-1293.5400390625	-229.7436828613282	1005.09130859375	-1323.9287109375	-299.3625793457032	1057.325317382813	-1300.206787109375	-427.4812622070314	865.2300415039065	-1155.218994140625	-393.8271789550782	809.5339965820315	-1192.9267578125	-391.2012634277345	854.4311523437502	-1097.996704101563	-34.25260925292969	1133.709350585938	-694.0083618164064	-189.6372528076172	1137.986206054688	-541.9821777343751	-194.4461059570313	1089.479370117188	-528.3361206054689	-236.6529693603516	1115.89892578125	-494.5899658203126	-282.2209167480469	1068.563598632813	-463.6179809570314	-345.2602539062501	1119.350463867188	-504.6595764160157	-416.2939758300782	913.734558105469	-684.0277099609376	-424.1538391113282	863.135192871094	-628.0996704101564	-373.1221618652344	871.0215454101565	-727.4670410156251	-346.0194396972657	805.039489746094	-1017.2646484375	-352.9669494628907	796.050720214844	-798.0238037109377	-456.2497863769532	950.9179687500002	-897.124450683594	-484.2203979492189	934.535339355469	-926.104431152344	-488.2746582031251	931.699401855469	-868.4117431640627	-321.6940612792969	643.0015869140626	-1116.0126953125	-242.2860260009766	609.5032348632814	-1124.591064453125	-206.5089874267579	640.7698974609376	-1116.733642578125	-225.8334045410157	551.2351074218751	-1110.81201171875	-152.7326354980469	478.6285095214845	-1102.973876953125	-116.408920288086	459.4791870117189	-998.4473876953127	-122.1879043579102	335.8345336914063	-1088.530151367188	-200.0832061767579	319.7727355957032	-1127.666137695313	-164.7889099121094	304.2633972167969	-1108.85498046875	-191.637451171875	229.5511474609376	-1068.599243164063	-316.9329528808594	97.70845031738284	-1094.870727539063	-291.7299499511719	89.48332977294923	-1010.177124023438	-389.6723022460939	42.99922180175782	-1051.144409179688	-155.5024871826172	53.65956497192384	-1071.957153320313	-167.8111419677735	54.73701858520509	-1113.684326171875	-219.6539764404297	32.62100982666016	-1158.760498046875	-327.9372558593751	661.1337890625001	-688.2431640625001	-262.6347351074219	652.4522094726564	-675.3919067382814	-240.0838165283204	676.0059204101564	-685.2471313476564	-226.1063842773438	576.8444213867189	-663.0492553710939	-169.9595031738282	468.4104614257814	-670.9490966796876	-128.0917205810547	463.151092529297	-775.234313964844	-180.0729675292969	271.0995178222657	-685.3726196289064	-279.9212951660157	231.7720642089844	-681.2617797851564	-237.6757507324219	210.9115753173829	-681.7360839843751	-232.903305053711	158.9763336181641	-710.3657836914064	-324.2519836425782	91.02786254882814	-693.8234863281251	-286.6013183593751	95.45366668701173	-776.5750732421877	-391.8401489257814	41.78952789306641	-746.7835083007814	-159.1644897460938	48.80239868164064	-711.5380249023439	-171.8191070556641	57.830379486084	-667.6749267578126	-231.8420715332032	32.83505249023438	-623.4108886718751	nan	nan	nan	nan	nan	nan	
673	3.36	110.7224502563477	1328.610961914063	-812.353942871094	-37.40376663208009	1301.884521484375	-943.7337646484377	-21.25326919555664	1307.302856445313	-802.8687133789065	-99.33879852294925	1223.2021484375	-883.7893066406252	-337.1579284667969	1023.529357910156	-892.6262207031252	-36.48583602905274	1077.45556640625	-880.797302246094	-26.9610824584961	1144.330688476563	-1065.739624023438	-152.1172027587891	1095.771484375	-1247.735229492188	-150.7964782714844	1045.378784179688	-1246.32568359375	-186.4517364501953	1054.630126953125	-1293.456909179688	-229.3622741699219	1004.115478515625	-1323.972534179688	-299.0941467285157	1056.437744140625	-1300.43701171875	-427.4315185546876	864.725769042969	-1155.265014648438	-393.8253173828126	808.9012451171877	-1192.833129882813	-391.3878479003907	853.7644653320315	-1098.066650390625	-33.88484954833985	1132.166870117188	-693.7182617187501	-189.15771484375	1137.024780273438	-541.9468383789064	-194.1089324951172	1088.648559570313	-528.3742065429689	-236.4226379394532	1114.918823242188	-494.513153076172	-281.9885253906251	1067.746948242188	-463.4230957031251	-344.7983703613282	1118.362426757813	-504.5917053222657	-416.0893554687501	913.125183105469	-683.8532714843751	-424.2406311035157	862.8713989257815	-628.1615600585939	-373.1494140625001	870.5247192382815	-727.4718627929689	-346.1276550292969	804.4556884765627	-1017.256591796875	-351.8758850097657	796.2932128906252	-798.1851196289065	-456.2496337890626	950.5708007812502	-897.0361938476565	-484.1987304687501	933.9805908203127	-925.907897949219	-488.1607971191407	931.0730590820315	-868.4998779296877	-321.6300354003907	642.6718750000001	-1115.841918945313	-242.5456848144532	609.6384887695314	-1124.489013671875	-207.1080780029297	640.9990844726564	-1116.598022460938	-225.6112365722657	551.0688476562501	-1110.703857421875	-152.5345001220703	478.6093750000001	-1102.738159179688	-116.2441177368164	459.3541259765626	-998.1575317382815	-121.7963409423828	335.5256042480469	-1088.234619140625	-199.924545288086	319.7979736328126	-1127.4169921875	-164.6057434082032	304.1817016601563	-1108.693237304688	-191.6201629638672	229.4722747802735	-1068.417114257813	-316.8800048828126	97.75556945800784	-1094.8046875	-291.7557373046876	89.45924377441408	-1010.186157226563	-389.6368408203126	43.00684356689454	-1051.10791015625	-155.4505004882813	53.65549087524415	-1071.889526367188	-167.7334747314453	54.68580245971681	-1113.65185546875	-219.6043395996094	32.65584182739259	-1158.733520507813	-327.9554443359376	660.7674560546876	-688.2168579101564	-262.6470947265626	652.0977172851564	-675.4005737304689	-240.1755981445313	675.6842041015626	-685.2318115234376	-226.0108184814454	576.5423583984376	-663.0584106445314	-169.6896362304688	468.2303161621095	-670.8406372070314	-127.9189605712891	463.0403442382814	-775.2412719726565	-179.9499053955078	271.0143127441407	-685.4111938476564	-279.8316040039063	231.7460327148438	-681.3168945312501	-237.5907897949219	210.8904724121094	-681.7044067382814	-232.8572845458985	158.9371032714844	-710.4072265625001	-324.2369995117188	90.98821258544923	-693.8056640625001	-286.5755920410157	95.43226623535158	-776.574890136719	-391.8267211914064	41.7962875366211	-746.7847900390626	-159.1692047119141	48.79014968872072	-711.5236816406251	-171.8749694824219	57.75184249877931	-667.7069702148439	-231.8386840820313	32.8064193725586	-623.4492187500001	nan	nan	nan	nan	nan	nan	
674	3.365	111.2194595336914	1327.153198242188	-812.3342285156252	-36.86249923706055	1300.399780273438	-943.5604248046877	-20.86870384216309	1306.049682617188	-802.8389282226565	-98.75794982910159	1221.754638671875	-883.8161621093752	-336.9233703613282	1022.56494140625	-892.5389404296877	-36.22448730468751	1075.571166992188	-880.6289672851565	-26.81687927246094	1143.251953125	-1065.638916015625	-151.5260009765625	1094.44091796875	-1247.623779296875	-150.278793334961	1044.139038085938	-1246.433959960938	-185.6500091552735	1053.635375976563	-1293.62451171875	-228.9729919433594	1002.904968261719	-1323.885986328125	-298.7432861328126	1055.6865234375	-1300.473876953125	-427.1446533203126	864.2420043945315	-1155.280883789063	-393.8394470214845	808.2962036132815	-1192.770263671875	-391.2453002929689	853.2489013671877	-1097.940185546875	-33.37225723266602	1130.907104492188	-693.9331665039064	-188.727035522461	1135.94677734375	-541.9057006835939	-193.7052459716797	1087.328247070313	-528.3117065429689	-236.0019836425782	1114.012817382813	-494.3779602050782	-281.5579833984376	1066.982543945313	-463.3858032226564	-344.2684326171876	1117.563354492188	-504.531707763672	-415.9750366210939	912.4473876953127	-683.7460327148439	-424.419891357422	862.5366821289065	-628.1755981445314	-373.1809082031251	869.8975830078127	-727.5032348632814	-346.1786804199219	803.8743896484377	-1017.226745605469	-352.8608398437501	795.2068481445315	-797.833923339844	-456.2244262695314	949.9990844726565	-896.9926757812502	-484.1878356933595	933.4614868164065	-925.7850341796877	-488.4997863769532	930.4249267578127	-868.7339477539065	-321.5983276367188	642.3203125000001	-1115.722534179688	-242.5099334716797	609.4301147460939	-1124.29345703125	-207.0896759033204	640.7888793945314	-1116.351318359375	-225.4638977050782	550.7970581054689	-1110.5869140625	-152.3046569824219	478.5378417968751	-1102.473388671875	-116.0155029296875	459.291717529297	-997.8233642578127	-121.6536178588867	335.4526367187501	-1088.067993164063	-199.7781219482422	319.7149963378907	-1127.216674804688	-164.5801239013672	304.1005249023438	-1108.522094726563	-191.5310821533203	229.4525756835938	-1068.291748046875	-316.8910827636719	97.73430633544925	-1094.770385742188	-291.7112731933594	89.38829803466798	-1010.084289550781	-389.6441955566407	43.0303077697754	-1051.107666015625	-155.5048217773438	53.63388442993165	-1071.975463867188	-167.7380828857422	54.70388793945314	-1113.60400390625	-219.6819763183594	32.66147232055665	-1158.680908203125	-327.9704589843751	660.3970947265626	-688.1748046875001	-263.1033020019532	651.3596191406251	-675.6243896484376	-240.2264709472657	675.4192504882814	-685.1483764648439	-225.9441528320313	576.4235229492189	-663.0547485351564	-169.5540466308594	468.1926269531251	-670.8580322265626	-127.7150573730469	462.9506835937501	-775.1888427734377	-179.8560791015625	270.8174438476563	-685.4222412109376	-279.7453308105469	231.7681121826172	-681.2663574218751	-237.5136413574219	210.8782806396485	-681.7537841796876	-232.8139038085938	158.7932739257813	-710.3982543945314	-324.2161865234376	91.03272247314455	-693.8289184570314	-286.5286254882813	95.44033813476564	-776.610290527344	-391.8484497070314	41.83368682861329	-746.8127441406251	-159.1328887939453	48.81513977050783	-711.4849853515626	-171.8364868164063	57.72744369506837	-667.6422119140626	-231.8426513671876	32.80626678466798	-623.3874511718751	nan	nan	nan	nan	nan	nan	
